<?xml version="1.0" encoding="UTF-8"?>
<svg id="Calque_1" xmlns="http://www.w3.org/2000/svg" xmlns:xlink="http://www.w3.org/1999/xlink" viewBox="0 0 161.123 155.5287">
  <g id="logoMark">
    <a xlink:href="89.6772549019608">
      <path id="logoMark__x3C_PathItem_x3E_" d="M84.9758,132.1721l-10.7434,7.5076c-2.1306,1.4889-5.0649.9687-6.5538-1.162l-5.4285-7.7682c-5.6352-8.0641-3.6662-19.1695,4.3978-24.8047h0c2.1306-1.4889,5.0649-.9687,6.5538,1.162l12.936,18.5116c1.4889,2.1306.9687,5.0649-1.162,6.5538Z" style="fill: #050c9c; opacity: .85;"/>
    </a>
    <a xlink:href="89.6772549019608">
      <path id="logoMark__x3C_PathItem_x3E_-2" data-name="logoMark__x3C_PathItem_x3E_" d="M47.0142,120.1937l-13.0557-1.1546c-2.5892-.229-4.5026-2.5136-4.2736-5.1028l.8349-9.4401c.8667-9.7997,9.5134-17.0413,19.3131-16.1746h0c2.5892.229,4.5026,2.5136,4.2736,5.1028l-1.9895,22.4958c-.229,2.5892-2.5136,4.5026-5.1028,4.2736Z" style="fill: #050c9c; opacity: .9;"/>
    </a>
    <a xlink:href="89.6772549019608">
      <path id="logoMark__x3C_PathItem_x3E_-3" data-name="logoMark__x3C_PathItem_x3E_" d="M25.6344,86.6174l-9.2591-9.2765c-1.8363-1.8397-1.8335-4.8197.0063-6.656l6.7076-6.6949c6.963-6.9499,18.2417-6.9393,25.1916.0237h0c1.8363,1.8397,1.8335,4.8197-.0063,6.656l-15.9841,15.954c-1.8397,1.8363-4.8197,1.8335-6.656-.0063Z" style="fill: #050c9c; opacity: .95;"/>
    </a>
    <a xlink:href="89.6772549019608">
      <path id="logoMark__x3C_PathItem_x3E_-4" data-name="logoMark__x3C_PathItem_x3E_" d="M30.8388,47.1537l-1.13-13.0579c-.2241-2.5896,1.6935-4.8706,4.2832-5.0947l9.4417-.8171c9.8013-.8482,18.4344,6.4097,19.2826,16.211h0c.2241,2.5897-1.6935,4.8707-4.2832,5.0948l-22.4995,1.9471c-2.5896.2241-4.8706-1.6935-5.0947-4.2832Z" style="fill: #050c9c;"/>
    </a>
    <a xlink:href="89.6772549019608">
      <path id="logoMark__x3C_PathItem_x3E_-5" data-name="logoMark__x3C_PathItem_x3E_" d="M99.9603,18.5407l12.6633-3.3803c2.5114-.6704,5.0907.822,5.7611,3.3334l2.4442,9.1564c2.5373,9.5051-3.1112,19.2674-12.6163,21.8047h0c-2.5114.6704-5.0907-.822-5.7611-3.3334l-5.8245-21.8196c-.6704-2.5114.822-5.0907,3.3334-5.7611Z" style="fill: #050c9c; opacity: .65;"/>
    </a>
    <a xlink:href="89.6772549019608">
      <path id="logoMark__x3C_PathItem_x3E_-6" data-name="logoMark__x3C_PathItem_x3E_" d="M131.535,42.7792l11.8734,5.5503c2.3547,1.1007,3.3713,3.902,2.2706,6.2567l-4.0132,8.5853c-4.1661,8.9123-14.7682,12.7598-23.6804,8.5937h0c-2.3547-1.1007-3.3713-3.902-2.2706-6.2567l9.5635-20.4587c1.1007-2.3547,3.902-3.3713,6.2567-2.2706Z" style="fill: #050c9c; opacity: .7;"/>
    </a>
    <a xlink:href="89.6772549019608">
      <path id="logoMark__x3C_PathItem_x3E_-7" data-name="logoMark__x3C_PathItem_x3E_" d="M140.1416,81.6433l5.5279,11.8839c1.0963,2.3568.0744,5.1561-2.2824,6.2524l-8.5928,3.9971c-8.9201,4.1493-19.5149.2818-23.6642-8.6383h0c-1.0963-2.3568-.0744-5.1561,2.2824-6.2524l20.4767-9.525c2.3568-1.0963,5.1561-.0744,6.2524,2.2824Z" style="fill: #050c9c; opacity: .75;"/>
    </a>
    <a xlink:href="89.6772549019608">
      <path id="logoMark__x3C_PathItem_x3E_-8" data-name="logoMark__x3C_PathItem_x3E_" d="M121.753,116.947l-3.4042,12.6569c-.6751,2.5101-3.2573,3.9977-5.7674,3.3226l-9.1518-2.4615c-9.5003-2.5552-15.1304-12.3281-12.5752-21.8284h0c.6751-2.5101,3.2573-3.9977,5.7674-3.3226l21.8086,5.8656c2.5101.6751,3.9977,3.2573,3.3226,5.7674Z" style="fill: #050c9c; opacity: .8;"/>
    </a>
  </g>
</svg>