<?xml version="1.0" encoding="UTF-8"?>
<svg id="Calque_1" xmlns="http://www.w3.org/2000/svg" xmlns:xlink="http://www.w3.org/1999/xlink" viewBox="0 0 568.191 118.6079">
  <g id="type">
    <path id="type__x3C_CompoundPathItem_x3E_" d="M80.4551,15v54.6914c0,18.2725-10.7632,33.666-32.665,33.666-22.0269,0-32.79-15.2686-32.79-33.666V15h10.7632v54.6914c0,13.2666,7.2588,23.6538,22.0269,23.6538,14.6431,0,22.0269-10.3872,22.0269-23.6538V15h10.6382Z"/>
    <path id="type__x3C_CompoundPathItem_x3E_-2" data-name="type__x3C_CompoundPathItem_x3E_" d="M152.7973,61.6816v40.2993h-10.6377v-38.4219c0-12.2651-7.1338-19.5239-18.8979-19.3984-11.2637,0-19.2734,8.1348-19.3984,17.0205v40.7998h-10.6382V36.0254h10.0122v9.6367c4.2554-6.2573,12.2651-11.0132,22.7778-11.0132,16.8955,0,26.7822,10.6377,26.7822,27.0327Z"/>
    <path id="type__x3C_CompoundPathItem_x3E_-3" data-name="type__x3C_CompoundPathItem_x3E_" d="M209.8696,101.981l-20.6504-26.5322-20.7754,26.5322h-11.3887l26.4072-34.0415-24.7803-31.9141h11.8896l19.5234,25.1558,19.2734-25.1558h11.5146l-24.9053,32.665,25.7812,33.2905h-11.8896Z"/>
    <a xlink:href="89.6772549019608">
      <polygon id="type__x3C_PathItem_x3E_" points="276.8239 35.5257 276.8239 37.0257 260.5539 101.9857 241.9039 101.9857 226.5339 36.0257 241.7839 36.0257 251.5439 82.8357 263.1539 35.5257 276.8239 35.5257"/>
    </a>
    <a xlink:href="89.6772549019608">
      <polygon id="type__x3C_PathItem_x3E_-2" data-name="type__x3C_PathItem_x3E_" points="313.5103 35.5257 298.1203 101.9857 279.3503 101.9857 263.2003 37.0257 263.2003 35.5257 276.8403 35.5257 288.4803 83.3357 298.2903 35.5257 313.5103 35.5257"/>
    </a>
    <path id="type__x3C_CompoundPathItem_x3E_-4" data-name="type__x3C_CompoundPathItem_x3E_" d="M383.7271,36.0254v65.9556h-14.7676v-8.8857c-4.8809,6.5078-12.2646,10.3877-21.7764,10.3877-18.8984,0-32.665-14.7681-32.665-34.417,0-19.7744,13.7666-33.541,32.665-33.541,9.5117,0,16.8955,3.5044,21.7764,9.8872v-9.3867h14.7676ZM368.4586,69.0659c0-12.1401-7.7588-20.3999-19.1484-20.3999-10.8877,0-18.8975,8.6353-18.8975,20.3999s8.0098,20.3999,18.8975,20.3999c11.3896,0,19.1484-8.3853,19.1484-20.3999Z"/>
    <path id="type__x3C_CompoundPathItem_x3E_-5" data-name="type__x3C_CompoundPathItem_x3E_" d="M429.4107,34.5239v14.8931c-11.5137,0-18.7725,6.1323-18.7725,15.0181v37.5459h-15.8945V36.0254h15.0186v7.3843c4.5059-5.2563,11.3887-8.8857,19.6484-8.8857Z"/>
    <path id="type__x3C_CompoundPathItem_x3E_-6" data-name="type__x3C_CompoundPathItem_x3E_" d="M464.0807,89.9663c9.0107,0,13.7666-3.3789,16.7705-9.2612l12.5146,8.0098c-5.0059,8.1348-13.7666,14.8931-29.7861,14.8931-21.0254,0-34.792-14.8931-34.792-34.542,0-19.1484,14.8926-34.542,33.791-34.542,20.7754,0,33.415,16.2695,33.415,33.165,0,2.5034-.125,5.0063-.375,6.3828h-51.1875c2.1279,9.8872,9.7617,15.8945,19.6494,15.8945ZM480.7252,62.9336c-1.752-9.8872-8.5098-15.8945-17.7715-15.8945s-16.5195,5.7568-18.5225,15.8945h36.2939Z"/>
    <path id="type__x3C_CompoundPathItem_x3E_-7" data-name="type__x3C_CompoundPathItem_x3E_" d="M497.6236,86.5874l13.8916-5.3818c1.8779,6.1323,7.0088,9.7622,15.0186,9.7622,6.3828,0,10.3877-2.6284,10.3877-7.2593,0-13.0156-36.1689-7.0083-36.1689-29.6611,0-12.0146,10.0117-19.5234,25.5312-19.5234,12.7656,0,22.0264,5.2563,24.7803,14.2671l-13.8926,5.3818c-1.752-5.0063-5.6318-7.3843-11.1387-7.3843-5.8818,0-9.0107,2.5029-9.0107,6.5078,0,12.0146,36.1689,5.1313,36.1689,29.2861,0,13.1406-10.7627,20.9004-27.2832,20.9004-14.2676,0-24.6553-5.7573-28.2842-16.8955Z"/>
  </g>
</svg>