<svg id="Calque_1" data-name="Calque 1" xmlns="http://www.w3.org/2000/svg" viewBox="0 0 864 131.4372">
  <g>
    <g id="logoMark">
      <line id="logoMark_PathItem_" data-name="logoMark &lt;PathItem&gt;" x1="41.9828" y1="97.7852" x2="20.0008" y2="98.2247" style="fill: #ff8364"/>
      <polygon id="logoMark_PathItem_2" data-name="logoMark &lt;PathItem&gt;" points="47.45 97.36 59.052 69.518 60.22 69.516 67.581 69.51 98.309 69.481 99.305 69.479 87.703 97.322 56.844 97.35 48.617 97.359 47.45 97.36" style="fill: #ff8364"/>
      <polygon id="logoMark_PathItem_3" data-name="logoMark &lt;PathItem&gt;" points="0 97.396 11.603 69.553 12.77 69.552 20.131 69.545 50.859 69.516 51.856 69.515 40.253 97.357 9.394 97.386 1.168 97.394 0 97.396" style="fill: #ff8364"/>
      <polygon id="logoMark_PathItem_4" data-name="logoMark &lt;PathItem&gt;" points="69.061 62.867 80.664 35.025 81.831 35.023 89.192 35.017 119.92 34.988 120.917 34.986 109.314 62.829 78.456 62.857 70.229 62.866 69.061 62.867" style="fill: #ff8364"/>
      <polygon id="logoMark_PathItem_5" data-name="logoMark &lt;PathItem&gt;" points="21.491 62.903 33.094 35.06 34.261 35.059 41.622 35.052 72.35 35.023 73.347 35.022 61.744 62.864 30.886 62.893 22.659 62.901 21.491 62.903" style="fill: #ff8364"/>
      <polygon id="logoMark_PathItem_6" data-name="logoMark &lt;PathItem&gt;" points="43.355 27.881 54.958 0.039 56.126 0.037 63.487 0.03 94.215 0.001 95.211 0 83.609 27.843 52.75 27.871 44.523 27.879 43.355 27.881" style="fill: #ff8364"/>
      <polygon id="logoMark_PathItem_7" data-name="logoMark &lt;PathItem&gt;" points="94.905 97.325 106.507 69.483 107.675 69.481 115.036 69.474 145.764 69.445 146.76 69.444 135.158 97.287 104.299 97.315 96.072 97.323 94.905 97.325" style="fill: #ff8364"/>
    </g>
    <g id="type">
      <path id="type_CompoundPathItem_" data-name="type &lt;CompoundPathItem&gt;" d="M210.2789,97.1744H193.1475V0h17.1314Z" style="fill: #fff"/>
      <path id="type_CompoundPathItem_2" data-name="type &lt;CompoundPathItem&gt;" d="M220.9307,97.1744V32.3918h15.5479v7.9175a22.882,22.882,0,0,1,19.4348-9.7886q11.0835,0,18.2831,7.1977,7.342,7.0557,7.3419,17.9955V97.1744H265.9905V60.1759a14.4942,14.4942,0,0,0-4.1749-10.5808,14.1311,14.1311,0,0,0-10.5089-4.2468,14.7466,14.7466,0,0,0-14.8281,14.8276V97.1744Z" style="fill: #fff"/>
      <path id="type_PathItem_" data-name="type &lt;PathItem&gt;" d="M294.9267,32.3918h-9.9333V45.9244h9.9333v51.25H310.33v-51.25h15.5479V32.3918H310.33V20.3246H294.9267Z" style="fill: #fff"/>
      <path id="type_PathItem_2" data-name="type &lt;PathItem&gt;" d="M312.6337,17.2033a7.9493,7.9493,0,0,1,5.7584-2.231h7.4862V0h-8.7816a22.334,22.334,0,0,0-15.836,5.9027,19.25,19.25,0,0,0-6.334,14.6838v6.9358H310.33V22.746A7.4055,7.4055,0,0,1,312.6337,17.2033Z" style="fill: #fff"/>
      <path id="type_CompoundPathItem_3" data-name="type &lt;CompoundPathItem&gt;" d="M359.9969,30.5207q14.6843,0,24.4733,9.7886,9.7881,9.7923,9.79,24.4733,0,14.6843-9.79,24.4743-9.7917,9.7909-24.4733,9.7885-14.8293,0-24.6176-9.7885-9.7917-9.79-9.789-24.4743,0-14.6829,9.789-24.4733Q345.1681,30.5212,359.9969,30.5207Zm0,52.9773A17.1642,17.1642,0,0,0,372.81,78.1714a18.7349,18.7349,0,0,0,5.1823-13.3888A18.2446,18.2446,0,0,0,372.81,51.5385a16.95,16.95,0,0,0-12.8127-5.47,17.8723,17.8723,0,0,0-13.1,5.47,18.245,18.245,0,0,0-5.1828,13.2441,18.7353,18.7353,0,0,0,5.1828,13.3888A17.8,17.8,0,0,0,359.9969,83.498Z" style="fill: #fff"/>
      <path id="type_CompoundPathItem_4" data-name="type &lt;CompoundPathItem&gt;" d="M398.2889,64.7826q0-14.5386,9.07-24.3286a30.688,30.688,0,0,1,42.18-2.8794V32.3918h15.4042V99.0454a31.9623,31.9623,0,0,1-32.5356,32.3918,36.7644,36.7644,0,0,1-19.7223-5.6141q-9.07-5.76-12.2372-14.2525l15.6922-4.3191a13.2836,13.2836,0,0,0,6.046,6.2625,19.3126,19.3126,0,0,0,9.6457,2.52,16.9666,16.9666,0,0,0,12.5247-4.8953A15.5219,15.5219,0,0,0,449.5389,99.19V91.9916a30.8564,30.8564,0,0,1-42.18-2.7347Q398.289,79.4673,398.2889,64.7826Zm45.9235-13.2441a16.7455,16.7455,0,0,0-24.7614,0,18.8476,18.8476,0,0,0-5.0385,13.2441,19.0271,19.0271,0,0,0,5.0385,13.3888,17.0516,17.0516,0,0,0,24.7614,0,19.0355,19.0355,0,0,0,5.0385-13.3888A18.856,18.856,0,0,0,444.2124,51.5385Z" style="fill: #fff"/>
      <path id="type_CompoundPathItem_5" data-name="type &lt;CompoundPathItem&gt;" d="M489.415,32.3918v7.9175A22.8819,22.8819,0,0,1,508.85,30.5207a8.4113,8.4113,0,0,1,2.0153.1438V47.7954A17.7215,17.7215,0,0,0,504.3868,46.5,14.7515,14.7515,0,0,0,489.415,61.4718V97.1744H473.8671V32.3918Z" style="fill: #fff"/>
      <path id="type_CompoundPathItem_6" data-name="type &lt;CompoundPathItem&gt;" d="M510.4323,64.7826q0-14.5386,9.07-24.3286a30.688,30.688,0,0,1,42.18-2.8794V32.3918h15.4041V97.1744H561.6823V91.9916a30.8564,30.8564,0,0,1-42.18-2.7347Q510.4323,79.4673,510.4323,64.7826Zm45.9234-13.2441a16.7454,16.7454,0,0,0-24.7613,0,18.8477,18.8477,0,0,0-5.0386,13.2441,19.0272,19.0272,0,0,0,5.0386,13.3888,17.0515,17.0515,0,0,0,24.7613,0,19.0356,19.0356,0,0,0,5.0386-13.3888A18.8561,18.8561,0,0,0,556.3557,51.5385Z" style="fill: #fff"/>
      <path id="type_CompoundPathItem_7" data-name="type &lt;CompoundPathItem&gt;" d="M601.704,129.5662H586.1561V32.3918H601.704v5.1828a29.4022,29.4022,0,0,1,19.5786-7.0539,29.1061,29.1061,0,0,1,22.458,9.7886q9.07,9.6467,9.07,24.4733,0,14.543-9.07,24.4743a30.6758,30.6758,0,0,1-42.0366,2.7347Zm17.5633-83.498a16.0229,16.0229,0,0,0-12.2367,5.47,18.8454,18.8454,0,0,0-5.0385,13.2441,19.0249,19.0249,0,0,0,5.0385,13.3888,15.9232,15.9232,0,0,0,12.2367,5.3266,16.09,16.09,0,0,0,12.3809-5.3266,19.0377,19.0377,0,0,0,5.0385-13.3888,18.8582,18.8582,0,0,0-5.0385-13.2441A16.1834,16.1834,0,0,0,619.2673,46.0682Z" style="fill: #fff"/>
      <path id="type_PathItem_3" data-name="type &lt;PathItem&gt;" d="M713.5608,37.7184q-7.4871-7.1973-18.7154-7.1977-12.67,0-20.01,9.7886V.0765H659.2871V97.1744H674.835V60.1759a14.1163,14.1163,0,0,1,4.3906-10.5808,15.21,15.21,0,0,1,11.0131-4.2468A14.9681,14.9681,0,0,1,701.18,49.5951a14.238,14.238,0,0,1,4.3186,10.5808V97.1744h15.548V55.8577Q721.0465,44.7741,713.5608,37.7184Z" style="fill: #fff"/>
      <rect id="type_PathItem_4" data-name="type &lt;PathItem&gt;" x="729.9714" y="32.3918" width="15.5479" height="64.7826" style="fill: #fff"/>
      <path id="type_PathItem_5" data-name="type &lt;PathItem&gt;" d="M739.5951.0765h-3.6962a9.2612,9.2612,0,0,0-5.1358,2.6525,9.6557,9.6557,0,0,0-2.807,7.1262,9.5909,9.5909,0,0,0,9.7895,9.79,9.7281,9.7281,0,0,0,7.0548-2.807,9.3574,9.3574,0,0,0,2.8785-6.9825A9.669,9.669,0,0,0,739.5951.0765Z" style="fill: #fff"/>
      <polygon id="type_PathItem_6" data-name="type &lt;PathItem&gt;" points="810.446 32.392 791.587 32.392 769.992 60.321 769.992 0.076 754.444 0.076 754.444 97.174 769.992 97.174 769.992 66.942 794.034 97.174 813.18 97.174 786.26 63.631 810.446 32.392" style="fill: #fff"/>
      <path id="type_CompoundPathItem_8" data-name="type &lt;CompoundPathItem&gt;" d="M862.9926,47.9392l-14.54,2.4481q-1.7268-6.4787-11.3731-6.4787a12.5924,12.5924,0,0,0-6.55,1.5121,4.6035,4.6035,0,0,0-2.5195,4.102q0,3.4551,5.7589,5.3266l13.244,4.4629q8.9255,3.1695,12.9566,7.7747A17.0728,17.0728,0,0,1,864,78.7475q0,9.6466-7.0539,14.9714t-18.5706,5.3265q-11.5192,0-18.5716-5.038a19.9392,19.9392,0,0,1-8.3489-13.964l14.54-2.16q2.0139,7.6313,12.8118,7.63a14.9088,14.9088,0,0,0,7.4862-1.6559,5.05,5.05,0,0,0,2.8794-4.5343q0-3.8878-7.1976-6.335L828.73,68.8142q-8.2054-2.7338-11.8767-6.9825-3.6706-4.2448-3.6707-11.1568,0-9.7881,6.7663-14.9723,6.7644-5.1819,18.2831-5.1819,10.3651,0,16.9872,4.6781A18.1348,18.1348,0,0,1,862.9926,47.9392Z" style="fill: #fff"/>
    </g>
  </g>
</svg>
