<?xml version="1.0" encoding="UTF-8"?>
<svg id="Calque_1" xmlns="http://www.w3.org/2000/svg" xmlns:xlink="http://www.w3.org/1999/xlink" viewBox="0 0 728.3031 155.5287">
  <g id="type">
    <path id="type__x3C_CompoundPathItem_x3E_" d="M240.5672,34.2188v54.6914c0,18.2725-10.7632,33.666-32.665,33.666-22.0269,0-32.79-15.2686-32.79-33.666v-54.6914h10.7632v54.6914c0,13.2666,7.2588,23.6538,22.0269,23.6538,14.6431,0,22.0269-10.3872,22.0269-23.6538v-54.6914h10.6382Z" style="fill: #050c9c;"/>
    <path id="type__x3C_CompoundPathItem_x3E_-2" data-name="type__x3C_CompoundPathItem_x3E_" d="M312.9094,80.9004v40.2993h-10.6377v-38.4219c0-12.2651-7.1338-19.5239-18.8979-19.3984-11.2637,0-19.2734,8.1348-19.3984,17.0205v40.7998h-10.6382V55.2441h10.0122v9.6367c4.2554-6.2573,12.2651-11.0132,22.7778-11.0132,16.8955,0,26.7822,10.6377,26.7822,27.0327Z" style="fill: #050c9c;"/>
    <path id="type__x3C_CompoundPathItem_x3E_-3" data-name="type__x3C_CompoundPathItem_x3E_" d="M369.9817,121.1997l-20.6504-26.5322-20.7754,26.5322h-11.3887l26.4072-34.0415-24.7803-31.9141h11.8896l19.5234,25.1558,19.2734-25.1558h11.5146l-24.9053,32.665,25.7812,33.2905h-11.8896Z" style="fill: #050c9c;"/>
    <a xlink:href="89.6772549019608">
      <polygon id="type__x3C_PathItem_x3E_" points="436.936 54.7445 436.936 56.2445 420.666 121.2044 402.016 121.2044 386.646 55.2445 401.896 55.2445 411.656 102.0544 423.266 54.7445 436.936 54.7445" style="fill: #050c9c;"/>
    </a>
    <a xlink:href="89.6772549019608">
      <polygon id="type__x3C_PathItem_x3E_-2" data-name="type__x3C_PathItem_x3E_" points="473.6224 54.7445 458.2324 121.2044 439.4624 121.2044 423.3124 56.2445 423.3124 54.7445 436.9524 54.7445 448.5924 102.5544 458.4024 54.7445 473.6224 54.7445" style="fill: #050c9c;"/>
    </a>
    <path id="type__x3C_CompoundPathItem_x3E_-4" data-name="type__x3C_CompoundPathItem_x3E_" d="M543.8392,55.2441v65.9556h-14.7676v-8.8857c-4.8809,6.5078-12.2646,10.3877-21.7764,10.3877-18.8984,0-32.665-14.7681-32.665-34.417,0-19.7744,13.7666-33.541,32.665-33.541,9.5117,0,16.8955,3.5044,21.7764,9.8872v-9.3867h14.7676ZM528.5707,88.2847c0-12.1401-7.7588-20.3999-19.1484-20.3999-10.8877,0-18.8975,8.6353-18.8975,20.3999s8.0098,20.3999,18.8975,20.3999c11.3896,0,19.1484-8.3853,19.1484-20.3999Z" style="fill: #050c9c;"/>
    <path id="type__x3C_CompoundPathItem_x3E_-5" data-name="type__x3C_CompoundPathItem_x3E_" d="M589.5228,53.7427v14.8931c-11.5137,0-18.7725,6.1323-18.7725,15.0181v37.5459h-15.8945V55.2441h15.0186v7.3843c4.5059-5.2563,11.3887-8.8857,19.6484-8.8857Z" style="fill: #050c9c;"/>
    <path id="type__x3C_CompoundPathItem_x3E_-6" data-name="type__x3C_CompoundPathItem_x3E_" d="M624.1928,109.1851c9.0107,0,13.7666-3.3789,16.7705-9.2612l12.5146,8.0098c-5.0059,8.1348-13.7666,14.8931-29.7861,14.8931-21.0254,0-34.792-14.8931-34.792-34.542,0-19.1484,14.8926-34.542,33.791-34.542,20.7754,0,33.415,16.2695,33.415,33.165,0,2.5034-.125,5.0063-.375,6.3828h-51.1875c2.1279,9.8872,9.7617,15.8945,19.6494,15.8945ZM640.8373,82.1523c-1.752-9.8872-8.5098-15.8945-17.7715-15.8945s-16.5195,5.7568-18.5225,15.8945h36.2939Z" style="fill: #050c9c;"/>
    <path id="type__x3C_CompoundPathItem_x3E_-7" data-name="type__x3C_CompoundPathItem_x3E_" d="M657.7357,105.8062l13.8916-5.3818c1.8779,6.1323,7.0088,9.7622,15.0186,9.7622,6.3828,0,10.3877-2.6284,10.3877-7.2593,0-13.0156-36.1689-7.0083-36.1689-29.6611,0-12.0146,10.0117-19.5234,25.5312-19.5234,12.7656,0,22.0264,5.2563,24.7803,14.2671l-13.8926,5.3818c-1.752-5.0063-5.6318-7.3843-11.1387-7.3843-5.8818,0-9.0107,2.5029-9.0107,6.5078,0,12.0146,36.1689,5.1313,36.1689,29.2861,0,13.1406-10.7627,20.9004-27.2832,20.9004-14.2676,0-24.6553-5.7573-28.2842-16.8955Z" style="fill: #050c9c;"/>
  </g>
  <g id="logoMark">
    <a xlink:href="89.6772549019608">
      <path id="logoMark__x3C_PathItem_x3E_" d="M84.9758,132.1721l-10.7434,7.5076c-2.1306,1.4889-5.0649.9687-6.5538-1.162l-5.4285-7.7682c-5.6352-8.0641-3.6662-19.1695,4.3978-24.8047h0c2.1306-1.4889,5.0649-.9687,6.5538,1.162l12.936,18.5116c1.4889,2.1306.9687,5.0649-1.162,6.5538Z" style="fill: #050c9c; opacity: .85;"/>
    </a>
    <a xlink:href="89.6772549019608">
      <path id="logoMark__x3C_PathItem_x3E_-2" data-name="logoMark__x3C_PathItem_x3E_" d="M47.0142,120.1937l-13.0557-1.1546c-2.5892-.229-4.5026-2.5136-4.2736-5.1028l.8349-9.4401c.8667-9.7997,9.5134-17.0413,19.3131-16.1746h0c2.5892.229,4.5026,2.5136,4.2736,5.1028l-1.9895,22.4958c-.229,2.5892-2.5136,4.5026-5.1028,4.2736Z" style="fill: #050c9c; opacity: .9;"/>
    </a>
    <a xlink:href="89.6772549019608">
      <path id="logoMark__x3C_PathItem_x3E_-3" data-name="logoMark__x3C_PathItem_x3E_" d="M25.6344,86.6174l-9.2591-9.2765c-1.8363-1.8397-1.8335-4.8197.0063-6.656l6.7076-6.6949c6.963-6.9499,18.2417-6.9393,25.1916.0237h0c1.8363,1.8397,1.8335,4.8197-.0063,6.656l-15.9841,15.954c-1.8397,1.8363-4.8197,1.8335-6.656-.0063Z" style="fill: #050c9c; opacity: .95;"/>
    </a>
    <a xlink:href="89.6772549019608">
      <path id="logoMark__x3C_PathItem_x3E_-4" data-name="logoMark__x3C_PathItem_x3E_" d="M30.8388,47.1537l-1.13-13.0579c-.2241-2.5896,1.6935-4.8706,4.2832-5.0947l9.4417-.8171c9.8013-.8482,18.4344,6.4097,19.2826,16.211h0c.2241,2.5897-1.6935,4.8707-4.2832,5.0948l-22.4995,1.9471c-2.5896.2241-4.8706-1.6935-5.0947-4.2832Z" style="fill: #050c9c;"/>
    </a>
    <a xlink:href="89.6772549019608">
      <path id="logoMark__x3C_PathItem_x3E_-5" data-name="logoMark__x3C_PathItem_x3E_" d="M99.9603,18.5407l12.6633-3.3803c2.5114-.6704,5.0907.822,5.7611,3.3334l2.4442,9.1564c2.5373,9.5051-3.1112,19.2674-12.6163,21.8047h0c-2.5114.6704-5.0907-.822-5.7611-3.3334l-5.8245-21.8196c-.6704-2.5114.822-5.0907,3.3334-5.7611Z" style="fill: #050c9c; opacity: .65;"/>
    </a>
    <a xlink:href="89.6772549019608">
      <path id="logoMark__x3C_PathItem_x3E_-6" data-name="logoMark__x3C_PathItem_x3E_" d="M131.535,42.7792l11.8734,5.5503c2.3547,1.1007,3.3713,3.902,2.2706,6.2567l-4.0132,8.5853c-4.1661,8.9123-14.7682,12.7598-23.6804,8.5937h0c-2.3547-1.1007-3.3713-3.902-2.2706-6.2567l9.5635-20.4587c1.1007-2.3547,3.902-3.3713,6.2567-2.2706Z" style="fill: #050c9c; opacity: .7;"/>
    </a>
    <a xlink:href="89.6772549019608">
      <path id="logoMark__x3C_PathItem_x3E_-7" data-name="logoMark__x3C_PathItem_x3E_" d="M140.1416,81.6433l5.5279,11.8839c1.0963,2.3568.0744,5.1561-2.2824,6.2524l-8.5928,3.9971c-8.9201,4.1493-19.5149.2818-23.6642-8.6383h0c-1.0963-2.3568-.0744-5.1561,2.2824-6.2524l20.4767-9.525c2.3568-1.0963,5.1561-.0744,6.2524,2.2824Z" style="fill: #050c9c; opacity: .75;"/>
    </a>
    <a xlink:href="89.6772549019608">
      <path id="logoMark__x3C_PathItem_x3E_-8" data-name="logoMark__x3C_PathItem_x3E_" d="M121.753,116.947l-3.4042,12.6569c-.6751,2.5101-3.2573,3.9977-5.7674,3.3226l-9.1518-2.4615c-9.5003-2.5552-15.1304-12.3281-12.5752-21.8284h0c.6751-2.5101,3.2573-3.9977,5.7674-3.3226l21.8086,5.8656c2.5101.6751,3.9977,3.2573,3.3226,5.7674Z" style="fill: #050c9c; opacity: .8;"/>
    </a>
  </g>
</svg>